<svg width="84" height="84" viewBox="0 0 84 84" fill="none" xmlns="http://www.w3.org/2000/svg">
<circle cx="41.9254" cy="41.9254" r="41.9254" fill="#B23835"/>
<path d="M5.2039 59H77.8216C78.1263 59 78.319 59.3255 78.1664 59.5892C76.1174 63.1277 72.4924 68.0169 67.5 72.3702C67.5 72.3702 69.278 72.7144 67.4785 72.389C61.1834 77.8719 52.7181 82.5 42.5 82.5C28.8881 82.5 17.5129 74.2871 10.5 66.7809C8.06854 64.1784 6.16146 61.6609 4.86735 59.6001C4.7023 59.3373 4.89354 59 5.2039 59Z" fill="white"/>
<path d="M10.5 66.7809C17.5129 74.2871 28.8881 82.5 42.5 82.5C52.7297 82.5 61.2027 77.8614 67.5 72.3702M10.5 66.7809C8.06854 64.1784 6.16146 61.6609 4.86735 59.6001C4.7023 59.3373 4.89354 59 5.2039 59H77.8216C78.1263 59 78.319 59.3255 78.1664 59.5892C76.1174 63.1277 72.4924 68.0169 67.5 72.3702M10.5 66.7809C10.5 66.7809 14.1087 64.7809 16.625 64.7809C19.1413 64.7809 20.2337 66.7809 22.75 66.7809C25.2663 66.7809 26.3587 64.7809 28.875 64.7809C31.3913 64.7809 32.489 66.9441 35 66.7809C37.0986 66.6445 37.897 64.7809 40 64.7809C42.103 64.7809 42.897 66.7809 45 66.7809C47.103 66.7809 47.897 64.7809 50 64.7809C52.103 64.7809 55 66.7809 55 66.7809M67.5 72.3702C67.5 72.3702 69.3443 72.7273 67.375 72.3702C65.261 71.9869 64.3984 70.3702 62.25 70.3702C60.1016 70.3702 59.2734 72.3702 57.125 72.3702C54.9766 72.3702 54.1484 70.3702 52 70.3702C49.8516 70.3702 48.8764 72.3702 46.875 72.3702C44.8736 72.3702 43.8984 70.3702 41.75 70.3702C39.6016 70.3702 38.6264 72.3702 36.625 72.3702C34.6236 72.3702 33.875 70 31.5 70.3702C29.125 70.7404 27.6745 72.3702 27.6745 72.3702M31.5 76C33.2036 77.3868 34.9283 78 37.125 78C39.3217 78 40.4186 76 42.75 76C45.0814 76 46.0436 78 48.375 78C50.7064 78 52.1919 77.4718 54 76M66 64H66.5M21.5 70.5H22M34.5 62H35M46.375 81H46.875" stroke="#B23835" stroke-width="2" stroke-linecap="round" stroke-linejoin="round"/>
<path fill-rule="evenodd" clip-rule="evenodd" d="M54.9091 41.7069L51.7273 33.7931C51.4242 32.8621 50.1818 31 47.6364 31H35.3636C32.8182 31 31.5758 32.8621 31.2727 33.7931L28.0909 41.7069H24.9091L24 42.6379V44.9655H26.2727L26.1212 51.52L27.6364 55.2069V57.5345H32.1818V55.2069H49.4545V58H54.4545V55.2069L55.8182 51.52V44.9655H56.7273H59V42.6379L58.0909 41.7069H54.9091ZM34 49.6207C33.6364 50.3655 32.6364 50.2414 32.1818 50.0862C31.2727 49.6207 29.9091 49.1552 28.5455 49.1552C27.7323 49.1552 27.6364 48.7383 27.6364 48.2241C27.6364 47.7586 28.3636 46.7345 29.4545 46.3621C30.8182 45.8966 32.1818 47.1379 33.0909 47.7586C33.5454 48.069 34.3636 48.8759 34 49.6207ZM48.0909 49.6207C48.4545 50.3655 49.4545 50.2414 49.9091 50.0862C50.8182 49.6207 52.1818 49.1552 53.5454 49.1552C54.3586 49.1552 54.4545 48.7383 54.4545 48.2241C54.4545 47.7586 53.7273 46.7345 52.6363 46.3621C51.2727 45.8966 49.9091 47.1379 49 47.7586C48.5454 48.069 47.7273 48.8759 48.0909 49.6207ZM51.7273 42.1724H30.8182L33.5454 33.7931H49L51.7273 42.1724Z" fill="white"/>
<path d="M49.7709 24.1672C50.0059 23.4686 50.9941 23.4686 51.2291 24.1672L51.511 25.0052C51.5877 25.2333 51.7667 25.4123 51.9948 25.489L52.8328 25.7709C53.5314 26.0059 53.5314 26.9941 52.8328 27.2291L51.9948 27.511C51.7667 27.5877 51.5877 27.7667 51.511 27.9948L51.2291 28.8328C50.9941 29.5314 50.0059 29.5314 49.7709 28.8328L49.489 27.9948C49.4123 27.7667 49.2333 27.5877 49.0052 27.511L48.1672 27.2291C47.4686 26.9941 47.4686 26.0059 48.1672 25.7709L49.0052 25.489C49.2333 25.4123 49.4123 25.2333 49.489 25.0052L49.7709 24.1672Z" fill="white"/>
<path d="M32.2709 26.1672C32.5059 25.4686 33.4941 25.4686 33.7291 26.1672L33.8851 26.6311C33.9619 26.8591 34.1409 27.0381 34.3689 27.1149L34.8328 27.2709C35.5314 27.5059 35.5314 28.4941 34.8328 28.7291L34.3689 28.8851C34.1409 28.9619 33.9619 29.1409 33.8851 29.3689L33.7291 29.8328C33.4941 30.5314 32.5059 30.5314 32.2709 29.8328L32.1149 29.3689C32.0381 29.1409 31.8591 28.9619 31.6311 28.8851L31.1672 28.7291C30.4686 28.4941 30.4686 27.5059 31.1672 27.2709L31.6311 27.1149C31.8591 27.0381 32.0381 26.8591 32.1149 26.6311L32.2709 26.1672Z" fill="white"/>
<path d="M41.8071 22C38.1721 22 37 17.9091 37 15.8636C37 13.6142 38.3326 10.866 41.0942 7.77274C41.4748 7.34637 42.1387 7.34722 42.5315 7.76242C45.3402 10.7313 47 12.7163 47 15.8636C47 19.2727 45.4421 22 41.8071 22Z" fill="#B23835" stroke="white" stroke-width="2"/>
<path d="M61.3666 20.8683C61.4952 20.6447 61.8343 20.7126 61.867 20.9685L62.0524 22.4207C62.1027 22.8146 62.3343 23.1622 62.6785 23.3602L63.9475 24.0903C64.1711 24.2189 64.1032 24.558 63.8473 24.5907L62.3951 24.7761C62.0012 24.8264 61.6536 25.058 61.4556 25.4022L60.7255 26.6712C60.5969 26.8948 60.2578 26.827 60.2251 26.5711L60.0397 25.1188C59.9894 24.7249 59.7578 24.3773 59.4136 24.1793L58.1446 23.4492C57.921 23.3206 57.9888 22.9815 58.2447 22.9488L59.697 22.7634C60.0909 22.7131 60.4385 22.4815 60.6365 22.1373L61.3666 20.8683Z" fill="#B23835" stroke="white"/>
<path d="M20.1866 22.7952C20.1555 22.5391 20.4676 22.3901 20.6472 22.5753L22.0872 24.0601C22.3636 24.3451 22.7574 24.4843 23.1515 24.4364L25.2048 24.1866C25.4609 24.1555 25.6099 24.4676 25.4247 24.6472L23.9399 26.0872C23.6549 26.3636 23.5157 26.7574 23.5636 27.1515L23.8133 29.2048C23.8445 29.4609 23.5324 29.6099 23.3528 29.4247L21.9128 27.9399C21.6364 27.6549 21.2426 27.5157 20.8484 27.5636L18.7952 27.8133C18.5391 27.8445 18.3901 27.5324 18.5753 27.3528L20.0601 25.9128C20.3451 25.6364 20.4843 25.2426 20.4364 24.8484L20.1866 22.7952Z" fill="#B23835" stroke="white"/>
<path fill-rule="evenodd" clip-rule="evenodd" d="M14.4516 48L12.3876 47.3258C12.3278 47.3062 12.2753 47.2697 12.2216 47.237C12.0619 47.1397 11.8494 47.165 11.7178 47.3098L9.5 49.7494L10.8495 51.1783L12.199 52.6072L13.75 54.2494L16.2172 51.7823C16.3511 51.6483 16.3702 51.4429 16.2744 51.2886C16.2424 51.2371 16.2069 51.1868 16.1871 51.1295L15.4516 49L14.4516 48Z" fill="#B23835"/>
<path d="M14.4516 48L15.4516 49L21.9926 41.0054C22.1113 40.8604 22.1007 40.6491 21.9682 40.5166C21.8224 40.3708 21.5849 40.3748 21.444 40.5253L14.4516 48Z" fill="white"/>
<path d="M7.5 52.0001L9.5 49.7494M11.7178 56.2718L13.75 54.2494M13.75 54.2494L12.199 52.6072M13.75 54.2494L16.2172 51.7823C16.3511 51.6483 16.3702 51.4429 16.2744 51.2886C16.2424 51.2371 16.2069 51.1868 16.1871 51.1295L15.4516 49M9.5 49.7494L10.8495 51.1783M9.5 49.7494L11.7178 47.3098C11.8494 47.165 12.0619 47.1397 12.2216 47.237C12.2753 47.2697 12.3278 47.3062 12.3876 47.3258L14.4516 48M10 55.0001L12.199 52.6072M12.199 52.6072L10.8495 51.1783M8.5 53.5001L10.8495 51.1783M14.4516 48L15.4516 49M14.4516 48L21.444 40.5253M15.4516 49L21.9926 41.0054M21.444 40.5253C21.5849 40.3748 21.8224 40.3708 21.9682 40.5166M21.444 40.5253V40.5253C21.3551 40.6203 21.4648 40.7676 21.5813 40.7096L21.9682 40.5166M21.9682 40.5166C22.1007 40.6491 22.1113 40.8604 21.9926 41.0054M21.9682 40.5166L21.8001 40.8696C21.7423 40.9909 21.8977 41.1006 21.9926 41.0054V41.0054" stroke="white" stroke-linecap="round" stroke-linejoin="round"/>
<path fill-rule="evenodd" clip-rule="evenodd" d="M68.7753 48.0352L66.8931 49.2275C66.6953 49.3417 66.6331 49.598 66.7566 49.7901L67.3471 50.6964L68.539 52.5638L70.2685 51.6301L71.998 50.6964L73.9857 49.6233L72.8424 47.643L72.2411 46.6017C72.1307 46.4103 71.886 46.3448 71.6947 46.4552L70 47.3281L68.7753 48.0352Z" fill="#B23835"/>
<path d="M68.7753 48.0352L70 47.3281L63.3263 38.2337C63.2169 38.0816 63.0101 38.0371 62.8478 38.1308C62.6693 38.2339 62.6116 38.4644 62.7206 38.6394L68.7753 48.0352Z" fill="white"/>
<path d="M70.1954 55.0782L68.539 52.5638M75.4132 52.1097L73.9857 49.6233M73.9857 49.6233L71.998 50.6964M73.9857 49.6233L72.8424 47.643M68.539 52.5638L70.2685 51.6301M68.539 52.5638L67.3471 50.6964M73.7402 53.4398L71.998 50.6964M71.998 50.6964L70.2685 51.6301M71.9031 54.5005L70.2685 51.6301M68.7753 48.0352L70 47.3281M68.7753 48.0352L66.8931 49.2275C66.6953 49.3417 66.6331 49.598 66.7566 49.7901L67.3471 50.6964M68.7753 48.0352L62.7206 38.6394M70 47.3281L63.3263 38.2337M70 47.3281L71.6947 46.4552C71.886 46.3448 72.1307 46.4103 72.2411 46.6017L72.8424 47.643M62.7206 38.6394C62.6116 38.4644 62.6693 38.2339 62.8478 38.1308M62.7206 38.6394V38.6394C62.7893 38.7499 62.96 38.682 62.9341 38.5545L62.8478 38.1308M62.8478 38.1308C63.0101 38.0371 63.2169 38.0816 63.3263 38.2337M62.8478 38.1308L63.1453 38.3846C63.2475 38.4718 63.3937 38.35 63.3263 38.2337V38.2337M67.3471 50.6964L72.8424 47.643" stroke="white" stroke-linecap="round" stroke-linejoin="round"/>
</svg>
