<svg width="84" height="84" viewBox="0 0 84 84" fill="none" xmlns="http://www.w3.org/2000/svg">
<circle cx="41.9254" cy="41.9254" r="41.9254" fill="#B23835"/>
<path d="M47.9966 45.7271L39.2822 37.0127C38.9755 36.706 38.4783 36.706 38.1716 37.0127L36.9527 38.2316C36.7978 38.3865 36.7147 38.599 36.7233 38.8179L36.8208 41.2816C36.8295 41.5005 36.7463 41.713 36.5914 41.8679L19.695 58.7643C19.531 58.9283 19.4479 59.1565 19.468 59.3877L19.8569 63.8573C19.8912 64.2513 20.2131 64.5583 20.6082 64.574L25.6926 64.7751C25.9756 64.7863 26.2081 64.5538 26.1969 64.2708C26.1857 63.9878 26.4182 63.7553 26.7012 63.7665C26.9842 63.7777 27.2167 63.5452 27.2055 63.2622C27.1943 62.9792 27.4267 62.7467 27.7098 62.7579C27.9928 62.7691 28.2252 62.5366 28.2141 62.2536L28.1933 61.7286L28.0815 58.9024C28.0634 58.4446 28.4394 58.0686 28.8972 58.0867L33.4993 58.2688C33.9571 58.2869 34.3332 57.9108 34.3151 57.453L34.133 52.8509C34.1149 52.3931 34.4909 52.0171 34.9487 52.0352L39.0067 52.1957C39.2256 52.2044 39.4381 52.1212 39.593 51.9663L42.8893 48.6701C43.0442 48.5152 43.2567 48.432 43.4756 48.4407L45.9393 48.5381C46.1581 48.5468 46.3707 48.4636 46.5256 48.3087L47.9966 46.8377C48.3033 46.531 48.3033 46.0338 47.9966 45.7271Z" fill="white"/>
<path fill-rule="evenodd" clip-rule="evenodd" d="M45.5651 18.2791L54.9531 14.8477C56.0127 14.3991 58.59 13.9601 60.4228 15.7929L68.6704 24.0405C70.5032 25.8733 70.0641 28.4506 69.6155 29.5101L66.1841 38.8981C65.8254 40.1732 64.4937 42.7879 62.0366 43.0456L50.8769 44.7936C50.8231 44.802 50.7701 44.814 50.7171 44.826C50.6071 44.8509 50.4972 44.8757 50.3798 44.8689C49.8234 44.8364 48.5777 44.2913 46.8949 42.6085L41.6256 37.3392C39.9553 35.6688 39.5631 34.5865 39.5773 34.078C39.5802 33.9728 39.6046 33.8739 39.6289 33.7749C39.6443 33.7126 39.6596 33.6503 39.6696 33.5864L41.4177 22.4266C41.6753 19.9696 44.29 18.6379 45.5651 18.2791ZM55.736 18.6469L54.3177 20.0652C53.9027 20.4802 53.6951 21.0591 53.7519 21.6433L53.797 22.1081C53.8411 22.5611 54.0411 22.9847 54.3629 23.3065L60.6985 29.6422C61.0204 29.964 61.444 30.164 61.8969 30.208L62.3618 30.2532C62.9459 30.3099 63.5249 30.1023 63.9399 29.6873L65.3581 28.2691C65.6723 27.9549 65.98 27.0057 64.697 25.7228L58.2823 19.308C56.9993 18.025 56.0502 18.3327 55.736 18.6469Z" fill="white"/>
</svg>
