<svg width="84" height="84" viewBox="0 0 84 84" fill="none" xmlns="http://www.w3.org/2000/svg">
<circle cx="41.925" cy="41.925" r="41.925" fill="#B23835"/>
<path fill-rule="evenodd" clip-rule="evenodd" d="M67.5195 48.2586L61.7013 36.2414C61.1472 34.8276 58.8753 32 54.2208 32H31.7792C27.1247 32 24.8528 34.8276 24.2987 36.2414L18.4805 48.2586H12.6623L11 49.6724V53.2069H15.1558L14.8788 63.16L17.6493 68.7586V72.2931H25.961V68.7586H57.5454V73H66.6883V68.7586L69.1818 63.16V53.2069H70.8442H75V49.6724L73.3377 48.2586H67.5195ZM29.2857 60.2759C28.6208 61.4069 26.7922 61.2184 25.961 60.9828C24.2987 60.2759 21.8052 59.569 19.3117 59.569C17.8248 59.569 17.6493 58.936 17.6493 58.1552C17.6493 57.4483 18.9792 55.8931 20.974 55.3276C23.4675 54.6207 25.961 56.5057 27.6234 57.4483C28.4545 57.9195 29.9506 59.1448 29.2857 60.2759ZM55.0519 60.2759C55.7169 61.4069 57.5454 61.2184 58.3766 60.9828C60.0389 60.2759 62.5324 59.569 65.0259 59.569C66.5128 59.569 66.6883 58.936 66.6883 58.1552C66.6883 57.4483 65.3584 55.8931 63.3636 55.3276C60.8701 54.6207 58.3766 56.5057 56.7143 57.4483C55.8831 57.9195 54.387 59.1448 55.0519 60.2759ZM61.7013 48.9655H23.4675L28.4545 36.2414H56.7143L61.7013 48.9655Z" fill="white"/>
<path d="M41.4236 57.3847L42 57.6247L42.5765 57.3847C50.5178 54.079 65.846 41.4197 65.4941 16.9481L65.4757 15.6747L64.2163 15.4862C61.7164 15.112 57.6076 14.1731 53.5126 12.5855C49.3815 10.9839 45.4669 8.79872 43.1492 6.03596L42 4.66608L40.8508 6.03596C38.5332 8.79872 34.6186 10.9839 30.4874 12.5855C26.3924 14.1731 22.2836 15.112 19.7837 15.4862L18.5243 15.6747L18.5059 16.9481C18.154 41.4197 33.4823 54.079 41.4236 57.3847Z" fill="white" stroke="#B23835" stroke-width="3"/>
<path d="M59.9953 20.1385C60.2748 39.5324 48.1149 49.4602 42 51.9999C35.8851 49.4602 23.7252 39.5324 24.0047 20.1385C28.256 19.5036 37.807 16.987 42 12C46.1931 16.987 55.744 19.5036 59.9953 20.1385Z" fill="#B23835"/>
<path d="M36.7127 38.6741L32.8841 25.1084H35.527L37.9713 35.0773H38.0971L40.7069 25.1084H43.1114L45.7278 35.0839H45.847L48.2913 25.1084H50.9342L47.1056 38.6741H44.6812L41.9655 29.1556H41.8595L39.1371 38.6741H36.7127Z" fill="white"/>
</svg>
